<?xml version="1.0" encoding="iso-8859-1"?>
<!-- Generator: Adobe Illustrator 18.0.0, SVG Export Plug-In . SVG Version: 6.00 Build 0)  -->
<!DOCTYPE svg PUBLIC "-//W3C//DTD SVG 1.1//EN" "http://www.w3.org/Graphics/SVG/1.1/DTD/svg11.dtd">
<svg version="1.1" id="Capa_1" xmlns="http://www.w3.org/2000/svg" xmlns:xlink="http://www.w3.org/1999/xlink" x="0px" y="0px"
	 viewBox="0 0 337.516 337.516" style="enable-background:new 0 0 337.516 337.516;" xml:space="preserve">
<g>
	<path fill="#fff" d="M168.758,0C75.704,0,0,75.705,0,168.758s75.704,168.758,168.758,168.758s168.758-75.705,168.758-168.758
		S261.812,0,168.758,0z M168.758,317.516C86.732,317.516,20,250.783,20,168.758S86.732,20,168.758,20
		s148.758,66.732,148.758,148.758S250.783,317.516,168.758,317.516z"/>
	<path fill="#fff" d="M168.758,32.199c-75.299,0-136.559,61.26-136.559,136.559s61.26,136.559,136.559,136.559s136.559-61.26,136.559-136.559
		S244.057,32.199,168.758,32.199z M168.758,285.316c-64.271,0-116.559-52.288-116.559-116.559S104.487,52.199,168.758,52.199
		s116.559,52.288,116.559,116.559S233.028,285.316,168.758,285.316z"/>
	<path fill="#fff" d="M251.138,183.149c0-5.523-4.478-10-10-10h-69.152v-48.192c0-5.523-4.478-10-10-10s-10,4.477-10,10v58.192
		c0,5.523,4.478,10,10,10h79.152C246.66,193.149,251.138,188.672,251.138,183.149z"/>
	<path fill="#fff" d="M161.985,84.792c5.522,0,10-4.477,10-10v-7.048c0-5.523-4.478-10-10-10s-10,4.477-10,10v7.048
		C151.985,80.314,156.463,84.792,161.985,84.792z"/>
	<path fill="#fff" d="M230.413,107.525c2.56,0,5.118-0.976,7.071-2.929l4.984-4.984c3.905-3.905,3.905-10.237,0-14.143
		c-3.906-3.905-10.236-3.905-14.143,0l-4.984,4.984c-3.905,3.905-3.905,10.237,0,14.143
		C225.295,106.549,227.854,107.525,230.413,107.525z"/>
	<path fill="#fff" d="M269.772,151.985h-7.048c-5.522,0-10,4.477-10,10s4.478,10,10,10h7.048c5.522,0,10-4.477,10-10
		S275.295,151.985,269.772,151.985z"/>
	<path fill="#fff" d="M247.063,223.343c-3.904-3.904-10.235-3.906-14.142,0c-3.906,3.905-3.906,10.237-0.001,14.142l4.983,4.984
		c1.953,1.953,4.512,2.929,7.071,2.929c2.559,0,5.118-0.976,7.07-2.929c3.906-3.905,3.906-10.237,0.001-14.142L247.063,223.343z"/>
	<path fill="#fff" d="M175.53,252.724c-5.522,0-10,4.477-10,10v7.048c0,5.523,4.478,10,10,10s10-4.477,10-10v-7.048
		C185.53,257.201,181.053,252.724,175.53,252.724z"/>
	<path fill="#fff" d="M100.031,232.919l-4.984,4.984c-3.905,3.905-3.905,10.237,0,14.143c1.953,1.953,4.512,2.929,7.071,2.929
		s5.118-0.976,7.071-2.929l4.984-4.984c3.905-3.905,3.905-10.237,0-14.143C110.268,229.014,103.938,229.014,100.031,232.919z"/>
	<path fill="#fff" d="M74.791,165.53h-7.048c-5.522,0-10,4.477-10,10s4.478,10,10,10h7.048c5.522,0,10-4.477,10-10S80.313,165.53,74.791,165.53z
		"/>
	<path fill="#fff" d="M104.595,114.173c3.906-3.905,3.906-10.237,0.001-14.142l-4.983-4.984c-3.904-3.904-10.235-3.906-14.142,0
		c-3.906,3.905-3.906,10.237-0.001,14.142l4.983,4.984c1.953,1.953,4.512,2.929,7.071,2.929
		C100.083,117.102,102.643,116.126,104.595,114.173z"/>
</g>
<g>
</g>
<g>
</g>
<g>
</g>
<g>
</g>
<g>
</g>
<g>
</g>
<g>
</g>
<g>
</g>
<g>
</g>
<g>
</g>
<g>
</g>
<g>
</g>
<g>
</g>
<g>
</g>
<g>
</g>
</svg>
