<?xml version="1.0" encoding="utf-8"?>
<!-- Generator: Adobe Illustrator 19.1.0, SVG Export Plug-In . SVG Version: 6.00 Build 0)  -->
<svg version="1.1" id="Layer_1" xmlns="http://www.w3.org/2000/svg" xmlns:xlink="http://www.w3.org/1999/xlink" x="0px" y="0px"
	 viewBox="0 0 64 64" enable-background="new 0 0 64 64" xml:space="preserve">
<g id="Donut_2_">
	<circle fill="#fff" cx="26.4828873" cy="8.0205002" r="1.5"/>
	<circle fill="#fff" cx="34.4828873" cy="12.0205002" r="1.5"/>
	<circle fill="#fff" cx="40.4828873" cy="8.0205002" r="1.5"/>
	<path fill="#fff" d="M31.9995003,0C14.354888,0,0.0005,14.3544998,0.0005,31.9990005C0.0005,49.6445007,14.354888,64,31.9995003,64
		c17.6444855,0,32-14.3554993,32-32.0009995C63.9995003,14.3544998,49.6439857,0,31.9995003,0z M31.9995003,2
		c9.028286,0,17.1312866,4.0142002,22.6360016,10.3450003c-1.1348152,1.3224001-1.9619141,1.9264994-3.6194153,1.9547997
		c-1.435585,0.0370998-3.2548981-1.0127001-4.2411995-1.5712996l-0.2753868-0.1552
		c-0.3848114-0.2149-0.8692131-0.1504002-1.1875114,0.1601c-2.6797028,2.6337996-5.6484871,5.2196999-9.8437996,5.4120998
		c-4.2168007,0.2070999-7.1748009-2.1328011-9.7539005-4.1865005c-0.3584003-0.2860994-0.8642006-0.2909994-1.2275009-0.0146999
		c-0.2178001,0.1651001-0.4365005,0.3360004-0.6571999,0.5088005c-1.4053001,1.0948-2.8575001,2.2276001-4.5235004,2.2276001
		c-3.7645874,0-7.1766987-2.3526001-8.5333996-5.8593006C16.206789,5.375,23.7159882,2,31.9995003,2z M31.9995003,62
		C15.4575005,62,2.0005,48.5419998,2.0005,31.9990005c0-7.4749012,2.7540886-14.3143005,7.2928886-19.5723991
		c1.8555002,3.7783995,5.7493,6.2540998,10.0126991,6.2540998c2.3535004,0,4.1592007-1.4082012,5.7530003-2.6504002
		c0.0078011-0.0067997,0.0156002-0.012701,0.0244122-0.0195007c2.4950886,1.9668007,5.5663872,4.1464005,9.8817863,4.1464005
		c0.1953011,0,0.3936005-0.0048008,0.5946999-0.0135994c4.5928001-0.210001,7.8907013-2.8428001,10.6142998-5.4580002
		c1.205101,0.6708994,3.118103,1.6035004,4.8768997,1.6142006c2.232502-0.0386009,3.5328026-0.902401,4.8648033-2.3857012
		c3.8148994,5.0320997,6.0835114,11.2976007,6.0835114,18.0848999C61.9995003,48.5419998,48.5415001,62,31.9995003,62z"/>
	<path fill="#fff" d="M32.0004997,22c-5.5137119,0-10,4.4862995-10,10s4.4862881,10,10,10c5.513588,0,10-4.4863014,10-10
		S37.5140877,22,32.0004997,22z M32.0004997,40c-4.411211,0-8-3.5889015-8-8s3.588789-8,8-8c4.411087,0,8,3.5888996,8,8
		S36.4115868,40,32.0004997,40z"/>
</g>
<g>
</g>
<g>
</g>
<g>
</g>
<g>
</g>
<g>
</g>
<g>
</g>
<g>
</g>
<g>
</g>
<g>
</g>
<g>
</g>
<g>
</g>
<g>
</g>
<g>
</g>
<g>
</g>
<g>
</g>
</svg>
