<?xml version="1.0" encoding="iso-8859-1"?>
<!-- Generator: Adobe Illustrator 19.0.0, SVG Export Plug-In . SVG Version: 6.00 Build 0)  -->
<svg version="1.1" id="Layer_1" xmlns="http://www.w3.org/2000/svg" xmlns:xlink="http://www.w3.org/1999/xlink" x="0px" y="0px"
	 viewBox="0 0 512 512" style="enable-background:new 0 0 512 512;" xml:space="preserve">
<g>
	<g>
		<g>
			<path fill="#fff" d="M320,149.333H192c-11.782,0-21.333,9.551-21.333,21.333c0,11.782,9.551,21.333,21.333,21.333h128
				c11.782,0,21.333-9.551,21.333-21.333C341.333,158.885,331.782,149.333,320,149.333z"/>
			<path fill="#fff" d="M256,0C161.743,0,85.333,76.41,85.333,170.667c0,36.171,16.404,85.458,45.533,145.996
				c9.462,19.664,20.13,40.18,31.788,61.31c16.545,29.987,34.246,59.731,51.946,87.915c6.197,9.867,11.954,18.839,17.128,26.751
				c3.12,4.772,5.365,8.148,6.587,9.96c8.429,12.493,26.802,12.545,35.302,0.099c1.226-1.795,3.473-5.136,6.596-9.861
				c5.177-7.831,10.938-16.718,17.138-26.498c17.71-27.935,35.42-57.473,51.973-87.328c12.308-22.199,23.51-43.751,33.352-64.385
				c28.161-59.042,43.991-107.612,43.991-143.959C426.667,76.41,350.257,0,256,0z M344.165,296.258
				c-9.443,19.797-20.248,40.587-32.156,62.064c-16.113,29.061-33.403,57.899-50.694,85.172c-1.78,2.807-3.521,5.538-5.222,8.188
				c-1.745-2.745-3.533-5.575-5.361-8.486c-17.299-27.545-34.598-56.614-50.72-85.835c-11.294-20.471-21.602-40.293-30.698-59.198
				C142.803,243.066,128,198.59,128,170.667c0-70.693,57.307-128,128-128s128,57.307,128,128
				C384,198.913,369.769,242.578,344.165,296.258z"/>
		</g>
	</g>
</g>
<g>
</g>
<g>
</g>
<g>
</g>
<g>
</g>
<g>
</g>
<g>
</g>
<g>
</g>
<g>
</g>
<g>
</g>
<g>
</g>
<g>
</g>
<g>
</g>
<g>
</g>
<g>
</g>
<g>
</g>
</svg>
