<?xml version="1.0" ?><svg viewBox="0 0 32 32" xmlns="http://www.w3.org/2000/svg"><defs><style>.cls-1{fill:none;}</style></defs><title/><g data-name="Layer 2" id="Layer_2"><path d="M16,13.93A3.93,3.93,0,1,1,19.88,10,3.91,3.91,0,0,1,16,13.93Zm0-6.86A2.93,2.93,0,1,0,18.88,10,2.9,2.9,0,0,0,16,7.07Z"/><path class="cls-1" d="M16.33,25.79s0,.05-.06.06a.56.56,0,0,1-.23.07h0a.44.44,0,0,1-.25-.08s0,0-.06-.06a.34.34,0,0,1-.12-.12c-.21-.37-.89-1.58-1.74-3.17H12l-5.64,5H25.68L20,22.5H18.18c-.85,1.59-1.53,2.8-1.73,3.17A.46.46,0,0,1,16.33,25.79Z"/><path class="cls-1" d="M16,4.5a6.49,6.49,0,0,0-6.28,6.36c0,1.32,2.4,6.28,4.74,10.69a.43.43,0,0,1,.28.23L16,24.3l1.23-2.52a.49.49,0,0,1,.31-.24c2.33-4.41,4.72-9.36,4.72-10.68A6.4,6.4,0,0,0,16,4.5Z"/><path d="M15.76,25.85s0,0-.06-.06S15.73,25.84,15.76,25.85Z"/><path d="M16,25.92h0Z"/><path d="M16.33,25.79s0,.05-.06.06S16.31,25.81,16.33,25.79Z"/><path d="M16.27,25.85a.56.56,0,0,1-.23.07A.56.56,0,0,0,16.27,25.85Z"/><path d="M16,25.93a.44.44,0,0,1-.25-.08A.44.44,0,0,0,16,25.93Z"/><path d="M27.33,27.63l-6.77-6a.46.46,0,0,0-.33-.13H18.71c2-3.8,4.56-9,4.56-10.64A7.4,7.4,0,0,0,16,3.5a7.42,7.42,0,0,0-7.28,7.36c0,1.63,2.58,6.84,4.58,10.64H11.77a.46.46,0,0,0-.33.13l-6.77,6a.49.49,0,0,0-.14.55A.51.51,0,0,0,5,28.5H27a.51.51,0,0,0,.47-.32A.49.49,0,0,0,27.33,27.63ZM9.73,10.86A6.49,6.49,0,0,1,16,4.5a6.4,6.4,0,0,1,6.26,6.36c0,1.32-2.39,6.27-4.72,10.68-.52,1-1.05,2-1.54,2.86-.49-.89-1-1.86-1.54-2.85C12.13,17.14,9.73,12.18,9.73,10.86ZM6.32,27.5l5.64-5h1.88c.85,1.59,1.53,2.8,1.74,3.17a.34.34,0,0,0,.12.12s0,.05.06.06a.44.44,0,0,0,.25.08h0a.56.56,0,0,0,.23-.07s0,0,.06-.06a.46.46,0,0,0,.12-.12c.2-.37.88-1.58,1.73-3.17H20l5.64,5Z"/></g></svg>